<?xml version="1.0" encoding="UTF-8"?>
<svg version="1.1" xmlns="http://www.w3.org/2000/svg" width="192" height="192">
<path d="M0 0 C0.33 0.99 0.66 1.98 1 3 C1.66 3 2.32 3 3 3 C5.30435513 6.13725458 7.11228214 9.6002971 9 13 C9.46535156 13.83402344 9.93070313 14.66804688 10.41015625 15.52734375 C14.07391563 22.47726058 16.98263031 29.70198911 19.875 37 C20.28081299 38.01602295 20.68662598 39.0320459 21.10473633 40.07885742 C21.48009521 41.04283447 21.8554541 42.00681152 22.2421875 43 C22.75048096 44.299375 22.75048096 44.299375 23.26904297 45.625 C24 48 24 48 24 52 C21.37818175 52.72264239 18.75376008 53.42849092 16.125 54.125 C15.37863281 54.33253906 14.63226563 54.54007813 13.86328125 54.75390625 C11.93009221 55.25897366 9.96511283 55.63855219 8 56 C7.34 55.34 6.68 54.68 6 54 C4.88625 54.66 3.7725 55.32 2.625 56 C-0.75 58 -0.75 58 -3 58 C-3 58.66 -3 59.32 -3 60 C-4.57421875 61.62109375 -4.57421875 61.62109375 -6.6875 63.4375 C-7.41324219 64.0665625 -8.13898438 64.695625 -8.88671875 65.34375 C-11 67 -11 67 -14 68.4375 C-14.66 68.953125 -15.32 69.46875 -16 70 C-16.24407486 73.63741741 -16.24407486 73.63741741 -16.05859375 76.0703125 C-15.98177362 78.6002554 -16.49747209 79.97158733 -18 82 C-20.39571465 84.48444483 -21.80634904 84.97020754 -25.25 85.5 C-30.08391625 84.85547783 -33.11311001 82.82682908 -37 80 C-36.649375 80.66 -36.29875 81.32 -35.9375 82 C-34.70048372 85.95845209 -34.7834008 89.03804867 -36 93 C-38.07715805 95.95837661 -39.53987341 97.63767229 -43.109375 98.5234375 C-45.06259148 98.77971058 -47.03258471 98.89996193 -49 99 C-49.4640625 100.4540625 -49.4640625 100.4540625 -49.9375 101.9375 C-51 105 -51 105 -52 106 C-55.04384613 105.99091389 -58.07600349 105.86676612 -61.1171875 105.7421875 C-64.437038 106.0390847 -64.88368397 106.6047426 -67 109 C-70.52499664 110.07848973 -73.8673089 110.58252685 -77.1875 108.875 C-77.785625 108.58625 -78.38375 108.2975 -79 108 C-80.051875 108.680625 -80.051875 108.680625 -81.125 109.375 C-85.21825413 111.68857842 -89.38372763 111.79806743 -94 111 C-95.6171875 109.6015625 -95.6171875 109.6015625 -97 108 C-98.485 107.01 -98.485 107.01 -100 106 C-100 104.68 -100 103.36 -100 102 C-100.928125 102.185625 -101.85625 102.37125 -102.8125 102.5625 C-106 103 -106 103 -109 102 C-110.58965571 99.78298853 -111.72327486 97.42137527 -113 95 C-113.5775 95.350625 -114.155 95.70125 -114.75 96.0625 C-117 97 -117 97 -119 96.9375 C-121.96685186 95.54678819 -123.25605157 93.74049039 -125 91 C-125.25 88.1875 -125.25 88.1875 -125 86 C-125.86625 86.226875 -126.7325 86.45375 -127.625 86.6875 C-131 87 -131 87 -137 84 C-137 79.05 -137 74.1 -137 69 C-137.66 68.67 -138.32 68.34 -139 68 C-137.7399707 60.31918309 -136.41621567 52.65359108 -135 45 C-135.42873563 47.33524088 -135.86774477 49.66780091 -136.3125 52 C-136.43044922 52.64839844 -136.54839844 53.29679687 -136.66992188 53.96484375 C-137.6204219 58.88794645 -139.14381926 63.3413503 -141 68 C-144.08504662 67.55274891 -147.16762281 67.09026448 -150.25 66.625 C-151.12269531 66.49867187 -151.99539062 66.37234375 -152.89453125 66.2421875 C-153.73886719 66.11328125 -154.58320313 65.984375 -155.453125 65.8515625 C-156.22817383 65.73635254 -157.00322266 65.62114258 -157.80175781 65.50244141 C-160.10908419 64.97506716 -161.93413374 64.13993019 -164 63 C-162.89962473 59.01977513 -161.79400623 55.04102442 -160.6875 51.0625 C-160.37876953 49.94552734 -160.07003906 48.82855469 -159.75195312 47.67773438 C-158.20758531 42.13426674 -156.59025043 36.6486924 -154.72583008 31.20483398 C-153.91663672 28.74676967 -153.20257713 26.27183237 -152.5 23.78125 C-152.2525 22.91242188 -152.005 22.04359375 -151.75 21.1484375 C-151.24180214 19.35386382 -150.74205266 17.55688002 -150.25 15.7578125 C-149.87875 14.47003906 -149.87875 14.47003906 -149.5 13.15625 C-149.2834375 12.38087891 -149.066875 11.60550781 -148.84375 10.80664062 C-148.5653125 10.21044922 -148.286875 9.61425781 -148 9 C-141.6246195 6.87487317 -133.88660196 11.31263823 -128 14 C-128 14.66 -128 15.32 -128 16 C-127.05125 16.144375 -126.1025 16.28875 -125.125 16.4375 C-122 17 -122 17 -120 18 C-116.57602418 18.99029924 -113.55059809 19.44508922 -110 19 C-107.273259 17.16549535 -105.16469375 15.17062878 -102.91015625 12.78515625 C-101 11 -101 11 -98 11 C-98 10.34 -98 9.68 -98 9 C-96.80375 8.773125 -95.6075 8.54625 -94.375 8.3125 C-90.07296115 7.38287962 -86.10782488 5.94773556 -82 4.375 C-71.97137787 0.75741806 -64.76110949 2.05358292 -54.55078125 4.34375 C-51.26517726 4.95099034 -48.32948951 5.12274616 -45 5 C-45 5.66 -45 6.32 -45 7 C-44.28714844 7.06058594 -43.57429688 7.12117188 -42.83984375 7.18359375 C-38.63079904 7.55181435 -34.48061529 7.91853978 -30.3125 8.625 C-26.30392481 9.07880096 -22.97760996 8.62804368 -19 8 C-19 7.01 -19 6.02 -19 5 C-18.15695313 4.65066406 -17.31390625 4.30132812 -16.4453125 3.94140625 C-15.34960938 3.48636719 -14.25390625 3.03132813 -13.125 2.5625 C-12.03445312 2.11003906 -10.94390625 1.65757813 -9.8203125 1.19140625 C-5.70817993 -0.54571346 -4.40859218 -1.04414025 0 0 Z M-11 15 C-10 17 -10 17 -10 17 Z M-129 17 C-128 21 -128 21 -128 21 Z M-9 18 C-8 20 -8 20 -8 20 Z M-8 20 C-7 22 -7 22 -7 22 Z M-130 22 C-129 24 -129 24 -129 24 Z M-131 24 C-130 28 -130 28 -130 28 Z M-5 25 C-4 27 -4 27 -4 27 Z M-4 27 C-3.34 28.32 -2.68 29.64 -2 31 C-2.33 29.68 -2.66 28.36 -3 27 C-3.33 27 -3.66 27 -4 27 Z M-132 29 C-131 33 -131 33 -131 33 Z M-2 31 C-1 33 -1 33 -1 33 Z M0 36 C1 38 1 38 1 38 Z M-119 76 C-119 76.33 -119 76.66 -119 77 C-117.906875 77.12375 -116.81375 77.2475 -115.6875 77.375 C-112 78 -112 78 -109 80 C-109.66 78.68 -110.32 77.36 -111 76 C-113.64 76 -116.28 76 -119 76 Z M-109 80 C-108 82 -108 82 -108 82 Z M-108 82 C-107 85 -107 85 -107 85 Z M-95 88 C-94 91 -94 91 -94 91 Z M-96 93 C-96.33 94.32 -96.66 95.64 -97 97 C-95.02 97 -93.04 97 -91 97 C-91.9590625 96.8453125 -91.9590625 96.8453125 -92.9375 96.6875 C-93.618125 96.460625 -94.29875 96.23375 -95 96 C-95.33 95.01 -95.66 94.02 -96 93 Z " fill="#96DBF7" transform="translate(164,44)"/>
<path d="M0 0 C3.81028546 1.90514273 6.701764 4.02543257 10 6.66015625 C12.06274637 8.04203517 13.54892142 8.66808311 16 9 C16.66 8.67 17.32 8.34 18 8 C22.2095833 8.15591049 24.30873792 8.32692903 27.375 11.3125 C29.83055556 15.37361111 29.83055556 15.37361111 30 18 C29.690625 18.5775 29.38125 19.155 29.0625 19.75 C27.4088117 23.25192816 27.75133794 26.14573813 28 30 C29.87938172 32.29827312 29.87938172 32.29827312 32.9375 32.3125 C35.97730723 32.33188189 35.97730723 32.33188189 37.421875 30.55078125 C39.90744569 28.10827738 42.34655442 27.95783999 45.7265625 27.66796875 C48.62003428 28.09055483 49.36907895 28.9409322 51.1875 31.1875 C51.661875 31.83203125 52.13625 32.4765625 52.625 33.140625 C54.77213448 36.0441364 56.73181301 37.45840236 60 39 C63.69326943 39.31160364 67.30415096 39.23674478 71 39 C70.505 39.99 70.505 39.99 70 41 C62.80698287 42.41501976 62.80698287 42.41501976 59.8125 40.875 C59.214375 40.58625 58.61625 40.2975 58 40 C56.948125 40.680625 56.948125 40.680625 55.875 41.375 C51.78174587 43.68857842 47.61627237 43.79806743 43 43 C41.3828125 41.6015625 41.3828125 41.6015625 40 40 C39.01 39.34 38.02 38.68 37 38 C37 36.68 37 35.36 37 34 C36.071875 34.185625 35.14375 34.37125 34.1875 34.5625 C31 35 31 35 28 34 C26.41034429 31.78298853 25.27672514 29.42137527 24 27 C23.4225 27.350625 22.845 27.70125 22.25 28.0625 C20 29 20 29 18 28.9375 C15.03314814 27.54678819 13.74394843 25.74049039 12 23 C11.75 20.1875 11.75 20.1875 12 18 C11.13375 18.226875 10.2675 18.45375 9.375 18.6875 C6 19 6 19 0 16 C0 10.72 0 5.44 0 0 Z " fill="#B8E6F7" transform="translate(27,112)"/>
<path d="M0 0 C2.875 0.625 2.875 0.625 4.75 1.6875 C6.56858537 4.81950813 6.28456665 7.05591923 5.875 10.625 C4.93519703 13.61431679 3.82011196 16.15482714 1.875 18.625 C-1.125 19.875 -1.125 19.875 -4.125 19.625 C-6.5 18.1875 -6.5 18.1875 -8.125 15.625 C-8.84314778 10.75755395 -8.62584318 7.81445207 -6 3.625 C-3.92218702 1.03953953 -3.4010664 0.68021328 0 0 Z " fill="#9BDCF6" transform="translate(48.125,121.375)"/>
<path d="M0 0 C2.67578125 1.96875 2.67578125 1.96875 5.3125 4.5 C6.19550781 5.3353125 7.07851562 6.170625 7.98828125 7.03125 C8.98408203 8.00578125 8.98408203 8.00578125 10 9 C6.66851581 11.79725955 4.41688632 12.53413526 -0.03125 12.3515625 C-3.24137345 11.77832617 -4.86394124 10.39497498 -7 8 C-8 5.4375 -8 5.4375 -8 3 C-5.91222799 -0.36363269 -3.75666042 -0.49187928 0 0 Z " fill="#97DAF6" transform="translate(73,142)"/>
<path d="M0 0 C2.46800047 1.15173355 4.04783565 2.04783565 6 4 C6.721875 3.855625 7.44375 3.71125 8.1875 3.5625 C11.71614327 2.85677135 14.4967762 3.25893343 18 4 C18.33 4.66 18.66 5.32 19 6 C17.14375 5.814375 17.14375 5.814375 15.25 5.625 C13.05857942 5.55859038 13.05857942 5.55859038 11 6 C7.56832651 9.69564837 6.47328528 13.03050456 6 18 C5.67 18 5.34 18 5 18 C5 16.35 5 14.7 5 13 C4.13375 13.226875 3.2675 13.45375 2.375 13.6875 C-1.68338409 14.0632763 -3.55166676 13.05257931 -7 11 C-7 7.7 -7 4.4 -7 1 C-6.67 1 -6.34 1 -6 1 C-5.8046875 3.01822917 -5.609375 5.03645833 -5.4140625 7.0546875 C-5.13625251 9.22668245 -5.13625251 9.22668245 -3 11 C-0.78927023 11.24253813 -0.78927023 11.24253813 1.625 11.125 C2.44226562 11.10695312 3.25953125 11.08890625 4.1015625 11.0703125 C4.72804688 11.04710937 5.35453125 11.02390625 6 11 C4.6062718 6.56541027 2.39417765 4.12621626 -1 1 C-0.67 0.67 -0.34 0.34 0 0 Z " fill="#CEEEF7" transform="translate(34,117)"/>
<path d="M0 0 C0.66 0.33 1.32 0.66 2 1 C1.07316406 1.80824219 0.14632812 2.61648437 -0.80859375 3.44921875 C-2.01876077 4.52804981 -3.22836708 5.60751007 -4.4375 6.6875 C-5.04916016 7.21794922 -5.66082031 7.74839844 -6.29101562 8.29492188 C-9.91582913 11.53465787 -9.91582913 11.53465787 -11.91015625 15.89453125 C-11.93980469 16.58933594 -11.96945313 17.28414062 -12 18 C-8.85069107 19.04976964 -6.61185544 19.10131595 -3.3125 19.0625 C-2.31863281 19.05347656 -1.32476562 19.04445313 -0.30078125 19.03515625 C0.45847656 19.02355469 1.21773437 19.01195313 2 19 C-0.34240025 21.34240025 -1.17088283 21.36283032 -4.375 21.6875 C-5.14585938 21.77386719 -5.91671875 21.86023438 -6.7109375 21.94921875 C-9.85915122 22.01905967 -12.19701591 21.40149204 -15 20 C-15.5 16.9375 -15.5 16.9375 -15 13 C-13.10611519 10.88156062 -11.09641487 9.21363897 -8.84765625 7.48046875 C-6.88563935 6.11990887 -6.88563935 6.11990887 -6 4 C-7.98 4 -9.96 4 -12 4 C-12 3.67 -12 3.34 -12 3 C-11.07767578 3.05220703 -11.07767578 3.05220703 -10.13671875 3.10546875 C-8.92435547 3.14607422 -8.92435547 3.14607422 -7.6875 3.1875 C-6.88699219 3.22230469 -6.08648437 3.25710937 -5.26171875 3.29296875 C-2.52148416 2.93801608 -1.70828921 2.10633718 0 0 Z " fill="#C4E9F5" transform="translate(57,60)"/>
<path d="M0 0 C-0.33 0.99 -0.66 1.98 -1 3 C-1.60585937 3.08636719 -2.21171875 3.17273438 -2.8359375 3.26171875 C-9.61597649 4.39867914 -15.003044 6.7016742 -21 10 C-22.97104913 11.05591918 -24.96088152 12.08239669 -27 13 C-27.66 12.67 -28.32 12.34 -29 12 C-27.37829621 10.99466333 -25.75252763 9.99588093 -24.125 9 C-22.76761719 8.1646875 -22.76761719 8.1646875 -21.3828125 7.3125 C-19 6 -19 6 -17 6 C-17 5.34 -17 4.68 -17 4 C-15.10751181 3.32389577 -13.2108398 2.65949561 -11.3125 2 C-9.72888672 1.443125 -9.72888672 1.443125 -8.11328125 0.875 C-5.21637944 0.0608143 -2.98299377 -0.17709796 0 0 Z " fill="#C2E8F5" transform="translate(88,66)"/>
<path d="M0 0 C3.65141356 1.5255906 5.90118112 3.72480909 8.625 6.5625 C11.51070681 9.69042054 11.51070681 9.69042054 15 12 C15.05399736 13.45792884 15.09279177 14.91642712 15.125 16.375 C15.14820312 17.18710938 15.17140625 17.99921875 15.1953125 18.8359375 C15 21 15 21 13 23 C10.6171875 23.1953125 10.6171875 23.1953125 7.875 23.125 C6.50988281 23.09792969 6.50988281 23.09792969 5.1171875 23.0703125 C4.41851562 23.04710937 3.71984375 23.02390625 3 23 C3 22.67 3 22.34 3 22 C6.3 21.34 9.6 20.68 13 20 C13.33 18.02 13.66 16.04 14 14 C13.34 14 12.68 14 12 14 C9.875 12.125 9.875 12.125 8 10 C8 9.34 8 8.68 8 8 C7.4225 7.7525 6.845 7.505 6.25 7.25 C3.67060021 5.81700012 1.93878408 4.21575324 0 2 C0 1.34 0 0.68 0 0 Z " fill="#CFEFF8" transform="translate(99,127)"/>
<path d="M0 0 C2 2 2 2 2.0625 4.375 C0.42865667 8.41155411 -2.11337926 9.15896912 -6 11 C-6.66 11 -7.32 11 -8 11 C-8 11.66 -8 12.32 -8 13 C-11.86336066 16.9783987 -16.1628026 20.29686028 -21 23 C-21.66 23.66 -22.32 24.32 -23 25 C-22.67 23.35 -22.34 21.7 -22 20 C-21.15888672 19.90332031 -21.15888672 19.90332031 -20.30078125 19.8046875 C-17.05448753 18.66931143 -15.50362833 16.64173787 -13.1875 14.125 C-9.28439225 10.0773327 -6.36202604 7.63192097 -1 6 C-1.020625 5.195625 -1.04125 4.39125 -1.0625 3.5625 C-1 1 -1 1 0 0 Z " fill="#D4F1F9" transform="translate(169,91)"/>
<path d="M0 0 C4.43170173 1.51896368 8.03024076 3.92639809 11.8125 6.625 C12.40998047 7.04523438 13.00746094 7.46546875 13.62304688 7.8984375 C15.08520565 8.92779728 16.54304899 9.9632823 18 11 C17.67 11.66 17.34 12.32 17 13 C12.56829827 11.48103632 8.96975924 9.07360191 5.1875 6.375 C4.59001953 5.95476562 3.99253906 5.53453125 3.37695312 5.1015625 C1.91479435 4.07220272 0.45695101 3.0367177 -1 2 C-0.67 1.34 -0.34 0.68 0 0 Z " fill="#D7F2FA" transform="translate(102,77)"/>
<path d="M0 0 C4.53875818 0.37973674 8.07731198 0.94162256 11.125 4.4375 C12 7 12 7 11 10 C10.01 9.67 9.02 9.34 8 9 C8 8.34 8 7.68 8 7 C7.2575 6.7525 6.515 6.505 5.75 6.25 C2.79875938 4.90852699 1.15185026 3.39094474 -1 1 C-0.67 0.67 -0.34 0.34 0 0 Z " fill="#D7F3FA" transform="translate(129,95)"/>
<path d="M0 0 C2.01431624 0.36597315 4.01328458 0.81816397 6 1.3125 C7.093125 1.57675781 8.18625 1.84101562 9.3125 2.11328125 C10.6428125 2.55220703 10.6428125 2.55220703 12 3 C12.33 3.66 12.66 4.32 13 5 C9.04 4.67 5.08 4.34 1 4 C0.34 5.65 -0.32 7.3 -1 9 C-1.66666667 10.66666667 -2.33333333 12.33333333 -3 14 C-4.1750709 10.47478731 -3.72717795 9.34332144 -2.625 5.875 C-2.34914063 4.98554687 -2.07328125 4.09609375 -1.7890625 3.1796875 C-1 1 -1 1 0 0 Z " fill="#CAECF8" transform="translate(17,52)"/>
<path d="M0 0 C2 2 2 2 3 9 C-2.28 10.32 -7.56 11.64 -13 13 C-13.33 11.68 -13.66 10.36 -14 9 C-13.67 9.66 -13.34 10.32 -13 11 C-12.24074219 10.7834375 -11.48148438 10.566875 -10.69921875 10.34375 C-9.70535156 10.0653125 -8.71148437 9.786875 -7.6875 9.5 C-6.70136719 9.2215625 -5.71523437 8.943125 -4.69921875 8.65625 C-2 8 -2 8 1 8 C1 7.01 1 6.02 1 5 C0.01 4.67 -0.98 4.34 -2 4 C-1.34 2.68 -0.68 1.36 0 0 Z " fill="#C9EBF7" transform="translate(185,87)"/>
<path d="M0 0 C6.87214452 3.05428645 12.26719191 7.16000629 18 12 C16.68 12.99 15.36 13.98 14 15 C14 13.68 14 12.36 14 11 C13.44828125 10.7421875 12.8965625 10.484375 12.328125 10.21875 C9.65685825 8.82036875 7.23148091 7.21236695 4.75 5.5 C3.85796875 4.8915625 2.9659375 4.283125 2.046875 3.65625 C1.37140625 3.1096875 0.6959375 2.563125 0 2 C0 1.34 0 0.68 0 0 Z " fill="#D5F2F9" transform="translate(84,136)"/>
<path d="M0 0 C2.475 0.99 2.475 0.99 5 2 C5 2.99 5 3.98 5 5 C5.94875 4.95875 6.8975 4.9175 7.875 4.875 C11 5 11 5 13 7 C13 7.66 13 8.32 13 9 C10.03 9 7.06 9 4 9 C2.68 6.03 1.36 3.06 0 0 Z " fill="#C1E8F4" transform="translate(53,120)"/>
<path d="M0 0 C0.33 0.99 0.66 1.98 1 3 C1.66 3 2.32 3 3 3 C3 3.66 3 4.32 3 5 C2.01 5 1.02 5 0 5 C0 4.34 0 3.68 0 3 C-6.435 3.495 -6.435 3.495 -13 4 C-10.60208312 -0.79583375 -4.69308584 -1.56436195 0 0 Z " fill="#BEE9F6" transform="translate(164,44)"/>
<path d="M0 0 C1.98 0.99 1.98 0.99 4 2 C4 5.3 4 8.6 4 12 C4.99 12.33 5.98 12.66 7 13 C6.21625 12.979375 5.4325 12.95875 4.625 12.9375 C2.01885039 12.81315937 2.01885039 12.81315937 0 14 C0 9.38 0 4.76 0 0 Z " fill="#CEF0F9" transform="translate(66,127)"/>
<path d="M0 0 C0.66 0 1.32 0 2 0 C2.103125 0.639375 2.20625 1.27875 2.3125 1.9375 C2.539375 2.618125 2.76625 3.29875 3 4 C6.14930893 5.04976964 8.38814456 5.10131595 11.6875 5.0625 C12.68136719 5.05347656 13.67523438 5.04445313 14.69921875 5.03515625 C15.45847656 5.02355469 16.21773437 5.01195313 17 5 C14.65759975 7.34240025 13.82911717 7.36283032 10.625 7.6875 C9.85414062 7.77386719 9.08328125 7.86023438 8.2890625 7.94921875 C5.14084878 8.01905967 2.80298409 7.40149204 0 6 C0 4.02 0 2.04 0 0 Z " fill="#DCF5FA" transform="translate(42,74)"/>
<path d="M0 0 C2.3895448 2.27361001 3.69305351 3.6235886 4 7 C3.35191436 8.34246312 2.68177416 9.67432801 2 11 C1.61250787 13.32495277 1.27017161 15.65851268 1 18 C0.34 18 -0.32 18 -1 18 C-1.94631376 15.44495285 -2.1555969 14.36305944 -1.0625 11.8125 C0.42820267 7.86652233 0.16358685 4.17146468 0 0 Z " fill="#C4E9F5" transform="translate(53,123)"/>
<path d="M0 0 C1.98 0.66 3.96 1.32 6 2 C6 2.66 6 3.32 6 4 C6.99 4.33 7.98 4.66 9 5 C8.67 5.66 8.34 6.32 8 7 C4.06326356 5.68775452 1.77280706 4.08089673 -1 1 C-0.67 0.67 -0.34 0.34 0 0 Z " fill="#D2F0FA" transform="translate(120,89)"/>
<path d="M0 0 C0.99 0.33 1.98 0.66 3 1 C3 1.66 3 2.32 3 3 C3.66 3 4.32 3 5 3 C5.33 4.32 5.66 5.64 6 7 C3 7 3 7 0.8125 5 C0.214375 4.34 -0.38375 3.68 -1 3 C-0.67 2.01 -0.34 1.02 0 0 Z " fill="#CDEEF9" transform="translate(141,104)"/>
<path d="M0 0 C2.8125 0.1875 2.8125 0.1875 6 1 C7.9375 3.375 7.9375 3.375 9 6 C8.67 6.99 8.34 7.98 8 9 C7.01 8.67 6.02 8.34 5 8 C5 6.68 5 5.36 5 4 C2.55503957 2.28288757 2.55503957 2.28288757 0 1 C0 0.67 0 0.34 0 0 Z " fill="#BAE5F6" transform="translate(132,96)"/>
<path d="M0 0 C3.36591866 1.44253657 5.51047079 3.33264727 8 6 C4 6 4 6 1.25 3.5 C0.5075 2.675 -0.235 1.85 -1 1 C-0.67 0.67 -0.34 0.34 0 0 Z " fill="#D0F1FA" transform="translate(34,117)"/>
<path d="M0 0 C3.53600465 1.91135386 5.78972846 3.62642766 8 7 C7.67 7.66 7.34 8.32 7 9 C4.33333333 6.33333333 1.66666667 3.66666667 -1 1 C-0.67 0.67 -0.34 0.34 0 0 Z " fill="#CFEFF9" transform="translate(148,53)"/>
<path d="M0 0 C4.43458973 1.3937282 6.87378374 3.60582235 10 7 C7.29068581 6.84518205 5.53415961 6.51827919 3.5546875 4.59765625 C2.32320358 3.10228292 1.1570163 1.5537076 0 0 Z " fill="#CFF0F8" transform="translate(118,116)"/>
<path d="M0 0 C0.33 0 0.66 0 1 0 C1 3.63 1 7.26 1 11 C0.01 11.33 -0.98 11.66 -2 12 C-1.34 8.04 -0.68 4.08 0 0 Z " fill="#C4EBF5" transform="translate(27,100)"/>
<path d="M0 0 C0.99 0 1.98 0 3 0 C3.33 2.31 3.66 4.62 4 7 C3.01 7.495 3.01 7.495 2 8 C0.74335022 5.09399739 0 3.20395416 0 0 Z " fill="#D6F3FA" transform="translate(165,84)"/>
<path d="M0 0 C-0.33 0.99 -0.66 1.98 -1 3 C-3.64 3 -6.28 3 -9 3 C-7.14340032 -0.71319936 -3.69365381 -0.09982848 0 0 Z " fill="#D4F2FB" transform="translate(88,66)"/>
<path d="M0 0 C3.65316671 1.24976756 4.78065836 1.67098753 7 5 C6.01 5.33 5.02 5.66 4 6 C2.62437146 4.71034824 1.29233607 3.37310707 0 2 C0 1.34 0 0.68 0 0 Z " fill="#D5F0FA" transform="translate(95,72)"/>
<path d="M0 0 C0.66 0 1.32 0 2 0 C2.103125 0.61875 2.20625 1.2375 2.3125 1.875 C2.87525373 4.36526484 2.87525373 4.36526484 6 6 C2.25 7.125 2.25 7.125 0 6 C0 4.02 0 2.04 0 0 Z " fill="#D1EFF7" transform="translate(42,74)"/>
<path d="M0 0 C0.66 0.33 1.32 0.66 2 1 C1.01 1.33 0.02 1.66 -1 2 C-0.67 2.99 -0.34 3.98 0 5 C-2.6666419 6.33332095 -4.16680303 5.67102033 -7 5 C-5.68 4.67 -4.36 4.34 -3 4 C-3 3.01 -3 2.02 -3 1 C-2.01 0.67 -1.02 0.34 0 0 Z " fill="#D4F0FA" transform="translate(148,48)"/>
<path d="M0 0 C2 1 2 1 2 1 Z " fill="#F7FFEE" transform="translate(25,117)"/>
<path d="M0 0 C2 1 2 1 2 1 Z " fill="#ECFFFF" transform="translate(63,53)"/>
</svg>
